<svg width="18" height="17" viewBox="0 0 18 17" fill="none" xmlns="http://www.w3.org/2000/svg">
<path d="M3.25 2.91663C3.80228 2.91663 4.25 2.46891 4.25 1.91663C4.25 1.36434 3.80228 0.916626 3.25 0.916626C2.69772 0.916626 2.25 1.36434 2.25 1.91663C2.25 2.46891 2.69772 2.91663 3.25 2.91663Z" stroke="#7D9806" stroke-width="0.5" stroke-miterlimit="10"/>
<path d="M1.25 6.24995C1.25 6.24995 1.58333 4.81295 2.25 4.47961C2.91667 4.14628 3.58333 4.14628 4.25 4.47961C4.91667 4.81295 5.25 6.24995 5.25 6.24995" stroke="#7D9806" stroke-width="0.5" stroke-linecap="round" stroke-linejoin="round"/>
<path d="M14.914 6.02466C15.4663 6.02466 15.914 5.57694 15.914 5.02466C15.914 4.47237 15.4663 4.02466 14.914 4.02466C14.3617 4.02466 13.914 4.47237 13.914 5.02466C13.914 5.57694 14.3617 6.02466 14.914 6.02466Z" stroke="#7D9806" stroke-width="0.5" stroke-miterlimit="10"/>
<path d="M12.914 9.35798C12.914 9.35798 13.2473 7.92098 13.914 7.58765C14.5807 7.25431 15.2473 7.25431 15.914 7.58765C16.5807 7.92098 16.914 9.35765 16.914 9.35765" stroke="#7D9806" stroke-width="0.5" stroke-linecap="round" stroke-linejoin="round"/>
<path d="M6.24768 12.9193C6.79997 12.9193 7.24768 12.4716 7.24768 11.9193C7.24768 11.367 6.79997 10.9193 6.24768 10.9193C5.6954 10.9193 5.24768 11.367 5.24768 11.9193C5.24768 12.4716 5.6954 12.9193 6.24768 12.9193Z" stroke="#7D9806" stroke-width="0.5" stroke-miterlimit="10"/>
<path d="M4.24767 16.2527C4.24767 16.2527 4.581 14.8157 5.24767 14.4823C5.91433 14.149 6.581 14.149 7.24767 14.4823C7.91433 14.8157 8.24767 16.2523 8.24767 16.2523M13.7673 2.962C12.361 1.303 10.2617 0.25 7.91667 0.25C6.99333 0.25 6.10867 0.413333 5.289 0.712333M9.39433 15.441C12.132 14.9063 14.3483 12.9153 15.2033 10.307M0.279001 7.246C0.259547 7.46902 0.249871 7.6928 0.250001 7.91667C0.250001 10.5747 1.60267 12.9167 3.65733 14.2923" stroke="#7D9806" stroke-width="0.5" stroke-linecap="round" stroke-linejoin="round"/>
</svg>
