<svg width="20" height="22" viewBox="0 0 20 22" fill="none" xmlns="http://www.w3.org/2000/svg">
<path d="M8.75 0.75C4.332 0.75 0.75 4.295 0.75 8.669C0.75 10.162 1.167 11.559 1.893 12.75" stroke="#130F78" stroke-width="1.5" stroke-linecap="round"/>
<path d="M12.25 9.75V11.75M15.25 9.75V11.75M12.25 1.75V3.75M15.25 1.75V3.75M10.75 5.25H8.75M10.75 8.25H8.75M18.75 5.25H16.75M18.75 8.25H16.75M14.75 3.75H12.75C11.807 3.75 11.336 3.75 11.043 4.043C10.75 4.336 10.75 4.807 10.75 5.75V7.75C10.75 8.693 10.75 9.164 11.043 9.457C11.336 9.75 11.807 9.75 12.75 9.75H14.75C15.693 9.75 16.164 9.75 16.457 9.457C16.75 9.164 16.75 8.693 16.75 7.75V5.75C16.75 4.807 16.75 4.336 16.457 4.043C16.164 3.75 15.693 3.75 14.75 3.75Z" stroke="#130F78" stroke-width="1.5" stroke-linecap="round" stroke-linejoin="round"/>
<path d="M11.75 17.75L11.62 18.397C11.48 19.104 11.409 19.457 11.25 19.737C11.005 20.1686 10.6083 20.4936 10.137 20.649C9.832 20.75 9.47 20.75 8.75 20.75C8.03 20.75 7.668 20.75 7.363 20.65C6.89154 20.4944 6.49482 20.1689 6.25 19.737C6.091 19.457 6.02 19.104 5.88 18.397L5.75 17.75M4.133 15.848C4.041 15.572 3.995 15.433 4 15.321C4.00566 15.2052 4.04475 15.0935 4.11254 14.9994C4.18033 14.9054 4.27393 14.833 4.382 14.791C4.486 14.75 4.632 14.75 4.922 14.75H12.578C12.869 14.75 13.014 14.75 13.118 14.79C13.2262 14.8321 13.3199 14.9046 13.3877 14.9989C13.4555 15.0931 13.4945 15.205 13.5 15.321C13.505 15.433 13.459 15.571 13.367 15.848C13.197 16.359 13.112 16.615 12.981 16.822C12.707 17.2546 12.2775 17.5656 11.781 17.691C11.543 17.75 11.275 17.75 10.738 17.75H6.762C6.225 17.75 5.956 17.75 5.719 17.69C5.22267 17.5649 4.79319 17.2542 4.519 16.822C4.388 16.615 4.303 16.359 4.133 15.848Z" stroke="#130F78" stroke-width="1.5"/>
</svg>
