<svg preserveAspectRatio="none" width="100%" height="100%" overflow="visible" style="display: block;" viewBox="0 0 22 21" fill="none" xmlns="http://www.w3.org/2000/svg">
<g id="Group">
<path id="Vector" d="M16.25 17.75H20.75M20.75 17.75L18.25 15.25M20.75 17.75L18.25 20.25M10.75 0.75L8.25 3.25L10.75 5.75" stroke="var(--stroke-0, #1EADD4)" stroke-width="1.5" stroke-linecap="round" stroke-linejoin="round"/>
<path id="Vector_2" d="M9.25 3.25C11.2391 3.25 13.1468 4.04018 14.5533 5.4467C15.9598 6.85322 16.75 8.76088 16.75 10.75C16.75 12.7391 15.9598 14.6468 14.5533 16.0533C13.1468 17.4598 11.2391 18.25 9.25 18.25H0.75" stroke="var(--stroke-0, #1EADD4)" stroke-width="1.5" stroke-linecap="round" stroke-linejoin="round"/>
<path id="Vector_3" d="M5.506 4.25C4.36403 4.90791 3.41559 5.85512 2.7562 6.99624C2.09682 8.13735 1.74976 9.43207 1.75 10.75C1.75 12.438 2.308 13.996 3.25 15.25" stroke="var(--stroke-0, #1EADD4)" stroke-width="1.5" stroke-linecap="round" stroke-linejoin="round"/>
</g>
</svg>
